<svg version="1.1" viewBox="0 0 88 33.56" xmlns="http://www.w3.org/2000/svg">
 <path d="m19.284 16.634c3.3725 0.6779 4.7742 3.0129 5.3689 6.0007 0.2123 1.0797 0.3568 2.1844 0.3568 3.2808 0 3.0547-1.5971 5.214-4.6468 5.6994-3.4915 0.5607-7.0509 0.7365-10.619 1.0796-0.6456-2.6781-1.2658-5.2224-1.8774-7.7666-1.0959-4.5696-2.1832-9.1475-3.2791-13.734-0.5776-2.4103 0.6286-4.0507 3.0327-4.1595 1.5376-0.0669 2.642 0.7616 3.0243 2.2932 0.3143 1.2637 0.6371 2.5191 0.8919 3.7912 0.102 0.5106 0.3398 0.6277 0.8071 0.5943 0.6456-0.0335 1.2912-0.0251 1.9453-0.0335 1.3423-0.0084 2.2767-0.7449 2.4891-2.0672 0.2633-1.6655-0.051-3.2389-1.0619-4.6114-0.8495-1.155-1.9793-1.791-3.4999-1.7576-2.1663 0.0586-4.3325-0.0167-6.4987 0.0251-1.5292 0.0419-2.7524-0.5356-3.5934-1.724-0.79004-1.1215-1.4187-2.3434-2.1238-3.5318 1.3847 0 2.6844-0.03348 3.9842 0.00837 3.1856 0.1088 6.3712 0.15064 9.5399 0.41009 5.1395 0.41009 7.9513 3.0715 8.7923 8.1265 0.1445 0.8955 0.2719 1.7994 0.2719 2.7033 0.017 2.4019-0.7561 4.3854-3.3046 5.373zm-5.0375 10.562c0.841-0.0418 1.563-0.0585 2.2766-0.1255 1.8859-0.1674 2.8713-1.1717 2.7864-3.038-0.051-1.0378-0.3058-2.0756-0.6201-3.0715-0.3059-0.9708-1.0025-1.6906-1.9964-2.0505-1.3167-0.477-2.6674-0.2092-4.0436-0.1925 0.5352 2.8707 1.0619 5.6576 1.5971 8.478z" fill="#fe3e34"/>
 <path d="m25.791 7.6788h6.2439c0.1614 2.5275 0.3143 5.0215 0.4672 7.5071 0.2548 4.0842 0.5012 8.1767 0.7645 12.261 0.0255 0.385 0.119 0.7783 0.2379 1.1466 0.3143 0.9959 0.9429 1.4144 1.9539 1.3391 0.9854-0.067 1.614-0.5942 1.6735-1.6404 0.0764-1.5399 0.0509-3.0882 0.0085-4.6282-0.1275-4.4356-0.2889-8.8713-0.4333-13.307-0.0085-0.2427-0.0085-0.4938 0-0.7365 0.034-1.7743 1.1214-2.8623 2.8883-2.879 1.6566-0.0167 2.7524 1.0462 2.7864 2.7953 0.0425 2.1091 0.017 4.2181 0.034 6.3271 0.034 5.0299 0.0764 10.06 0.1274 15.09 0.0085 0.5356 0.068 1.0713 0.1104 1.5985-2.7608 0.3599-4.3409 0.3683-5.3093-1.5315-0.7051 1.1047-1.5631 1.9918-2.8884 2.3099-1.614 0.3933-3.1686 0.3264-4.6043-0.5608-1.1213-0.6863-1.8264-1.6906-1.9708-2.9794-0.2803-2.4103-0.4927-4.829-0.7221-7.2477-0.4417-4.737-0.8835-9.474-1.3167-14.211-0.0425-0.1925-0.0425-0.4101-0.051-0.6528z" fill="#fe3e34"/>
 <path d="m55.787 4.4987c1.2233-2.2848 3.2366-2.3016 5.3944-2.1091-0.2209 1.9333-0.4248 3.8248-0.6457 5.7162-0.4757 4.1679-0.9514 8.3357-1.4271 12.495-0.119 1.0211-0.2294 2.0505-0.4163 3.0548-0.6711 3.5569-2.5995 5.2977-6.2439 5.6073-1.5461 0.134-3.0922 0.0754-4.5448-0.5523-1.8689-0.8035-2.8883-2.6112-2.5485-4.5194 0.2039-1.18 0.9344-1.8245 2.0473-1.8328 1.4017-0.0084 1.9708 0.4352 2.2342 1.7407 0.0679 0.3348 0.1104 0.678 0.1784 1.0127 0.1444 0.7449 0.5606 1.2387 1.3337 1.406 0.8325 0.1758 1.4866-0.1171 1.9284-0.795 0.2548-0.385 0.4927-0.8286 0.5606-1.2721 0.2379-1.54 0.3993-3.0883 0.5267-4.6701-1.1298 1.3726-2.5315 2.0505-4.29 2.0421-2.9732-0.0167-4.7402-1.4227-4.9186-4.3771-0.1614-2.653-0.0849-5.3395 0.0935-8.0009 0.1104-1.5902 0.4332-3.2305 0.9854-4.7203 1.3337-3.582 4.7742-3.7577 7.0509-3.0296 1.2997 0.42683 1.9708 1.1717 2.7014 2.8037zm-0.6032 4.7202c-0.1444-0.9708-0.2038-1.8747-0.4332-2.7451-0.2294-0.8788-0.824-1.2052-1.7415-1.1717-1.0024 0.0335-1.7585 0.5942-1.9369 1.8915-0.3907 2.879-0.6286 5.7831-0.8834 8.6788-0.0425 0.4938 0.1274 1.0211 0.2973 1.5065 0.2293 0.6779 0.7306 1.1047 1.4866 1.1633 0.7561 0.0586 1.3932-0.2092 1.7585-0.8788 0.2548-0.4686 0.5097-0.9792 0.5777-1.4981 0.3313-2.3266 0.5946-4.6616 0.8749-6.9464z" fill="#fe3e34"/>
 <path d="m60.918 21.513h4.6892c-0.0849 0.7114-0.2378 1.3976-0.2123 2.0672 0.0169 0.4352 0.2123 1.1047 0.5182 1.2302 0.4502 0.1925 1.1553 0.1591 1.597-0.0585 1.4612-0.7365 1.8689-3.172 0.7985-4.4357-0.3143-0.3766-0.6965-0.6947-1.0873-1.0043-0.3823-0.3097-0.7901-0.6026-1.2148-0.8537-2.9223-1.7742-3.8398-4.352-3.1602-7.5825 0.7221-3.3979 2.4721-5.9672 6.0825-6.779 1.1978-0.26784 2.5315-0.24273 3.7633-0.0502 2.0473 0.318 3.2791 1.7491 3.2621 3.7912-0.0085 1.3056-0.2889 2.6196-0.6032 3.8917-0.2124 0.8788-0.9089 1.4395-1.8519 1.6236-1.5206 0.2846-2.6334-0.6612-2.506-2.176 0.0425-0.5105 0.1699-1.0127 0.2208-1.5315 0.051-0.5608-0.0254-1.1131-0.6201-1.3726-0.6286-0.2762-1.2148-0.1255-1.7245 0.3264-1.4526 1.3056-1.4696 3.6741 0 4.9797 0.7051 0.6193 1.4527 1.1884 2.2002 1.7659 2.2257 1.7157 2.9223 3.9335 2.2427 6.6033-0.6286 2.4438-1.8774 4.4775-4.1456 5.7831-1.7669 1.021-3.6868 1.1466-5.6407 0.7532-1.6565-0.3347-2.6164-1.3642-2.7269-3.0631-0.0849-1.2972 0.0765-2.5945 0.119-3.9084z" fill="#fe3e34"/>
 <path d="m88 2.5566c-0.7985 1.9668-1.5546 3.8248-2.3192 5.6827-1.4271 3.4732-2.8543 6.9465-4.29 10.42-0.4672 1.1466-1.1298 1.6487-2.0643 1.5985-0.9599-0.0586-1.6055-0.611-1.4951-1.5483 0.1444-1.2554 0.4587-2.5024 0.7476-3.741 0.9174-3.9168 1.8774-7.8169 2.7864-11.734 0.1104-0.49378 0.2718-0.69464 0.8155-0.6779 1.8944 0.0251 3.7888 0 5.8191 0z" fill="#fe3e34"/>
 <path d="m80.516 23.781c-0.0085 1.2889-1.0619 2.2932-2.3956 2.2848-1.2913-0.0167-2.3362-1.021-2.3362-2.2764-0.0085-1.3056 1.0959-2.3434 2.4551-2.3183 1.3082 0.0252 2.2851 1.0211 2.2767 2.3099z" fill="#fe3e34"/>
</svg>
