<svg version="1.1" viewBox="0 0 104.99 25.001" xmlns="http://www.w3.org/2000/svg">
 <path d="m5.7448e-4 18.087c0-1.0913 0.0088929-2.1815 0-3.2761-0.02779-2.7791 0.95043-5.0441 3.4249-6.3839 2.6479-1.4313 5.3858-1.4686 7.9547 0.1717 0.9071 0.5807 1.4195 0.6327 2.3622 0.0283 2.6768-1.716 5.5281-1.7183 8.2037 0 2.7602 1.7679 3.5005 4.5571 3.177 7.6943-0.1211 1.185-0.9071 1.8753-2.0498 1.9317-1.1427 0.0565-1.9731-0.5207-2.2132-1.7137-0.1279-0.6338-0.1112-1.298-0.1712-1.9476-0.1512-1.7499-1.2784-2.8807-2.8836-2.8965-1.6674-0.0158-2.9057 1.1557-2.9569 2.9846-0.0678 2.3972-0.0111 4.7967-0.0266 7.1962-0.0112 1.9204-0.7982 2.9744-2.2099 2.9959-1.4118 0.0214-2.2588-1.028-2.2755-2.9372-0.0211-2.2888 0.0111-4.5786-0.0134-6.8685-0.0222-2.0911-1.1449-3.3654-2.9068-3.3676-1.7919 0-2.9136 1.2426-2.9391 3.3292-0.02779 2.343 0.01445 4.6882-0.01779 7.0312-0.02334 1.7487-0.91486 2.8016-2.2733 2.788-1.3584-0.0135-2.1643-1.0438-2.1799-2.8355-0.0055581-1.3082-0.0055581-2.6163-0.0055581-3.9245z" fill="#b445ff"/>
 <path d="m49.087 8.1206c1.3129-0.113 2.3189-0.2847 3.3215-0.2723 1.8701 0.0272 3.6576 0.787 4.9897 2.121 1.3321 1.334 2.106 3.1392 2.1603 5.039 0.0222 0.8721 0.0244 1.7465 0 2.6186-0.1179 4.0522-3.4049 7.2459-7.4479 7.2526-3.984 0.0079-7.3122-3.084-7.39-7.0876-0.1-5.0712-0.0534-10.147-0.0256-15.22 0.0078-1.6584 0.9249-2.6152 2.2777-2.57 1.2884 0.04519 2.0754 0.9625 2.1066 2.5712 0.0344 1.8346 0.0077 3.6715 0.0077 5.5479zm5.9727 8.223h0.0256c0-0.4892 0.0311-0.9817-0.0055-1.4686-0.1234-1.6256-1.3696-2.9654-2.8191-3.0626-1.4684-0.0994-2.868 1.0619-3.0525 2.7452-0.1343 1.2395-0.1242 2.4908 0.03 3.7279 0.0945 0.7096 0.4355 1.3614 0.9615 1.8379 0.5259 0.4764 1.2021 0.7461 1.9065 0.7604 1.3706 0.0124 2.7301-1.2257 2.9402-2.7508 0.08-0.5851 0.0133-1.1861 0.0133-1.7894z" fill="#b445ff"/>
 <path d="m88.241 14.756c0.1045-1.8234-0.528-3.0163-2.092-3.2513-1.2662-0.1898-2.6168 0.1006-3.9151 0.2847-0.5647 0.0791-1.1205 0.6631-1.6297 0.5999-0.757-0.0949-1.8386-0.3785-2.0976-0.9196-0.269-0.5649 0.02-1.7883 0.5036-2.2729 2.5778-2.5825 9.1552-2.4277 11.561 0.3174 0.8826 1.0066 1.6085 2.3916 1.8297 3.7042 0.3124 1.8527 0.2646 3.8184 0.0567 5.7005-0.4069 3.6782-3.994 6.2494-8.0036 5.9432-3.8062-0.2914-6.573-3.2557-6.5052-6.969 0.0389-2.0922 0.727-2.9033 2.779-3.0016 1.9287-0.0926 3.864-0.0384 5.7971-0.0587 0.5758-0.0068 1.1539-0.0509 1.7163-0.0768zm-6.344 3.476c0.099 2.0334 1.1984 2.883 3.3949 2.8028 1.9654-0.0712 3.0014-1.0348 2.9091-2.8028z" fill="#b445ff"/>
 <path d="m65.841 17.377c0.13 2.979 2.3899 4.3313 5.3691 3.4185 0.7648-0.235 1.4873-0.836 2.2365-0.8473 0.7782-0.0113 1.9565 0.279 2.2344 0.8213 0.2901 0.5648-0.0145 1.9736-0.5291 2.3509-2.9692 2.1757-6.3362 2.4017-9.6255 0.9997-2.958-1.2596-3.9852-3.9279-3.9407-7.0707 0.0134-0.9263-0.0333-1.8561 0.0178-2.779 0.2112-3.8409 3.1837-6.7047 7.0832-6.864 3.8996-0.1593 6.9965 2.239 7.5646 5.8608 0.4513 2.8762-0.5559 4.0918-3.4116 4.1064-2.301 0.0125-4.6021 0.0034-6.9987 0.0034zm6.5496-3.3676c-0.1956-1.9374-1.2506-2.8242-3.2559-2.8242-1.9131 0-3.0603 0.9761-3.2559 2.8242z" fill="#b445ff"/>
 <path d="m27.39 13.988c0-1.2551-0.0133-2.509 0-3.7641 0.0234-1.7928 0.8093-2.7474 2.251-2.7711 1.4763-0.0249 2.2777 0.8868 2.2978 2.6932 0.0277 2.5101-0.039 5.0214 0.0455 7.5282 0.0545 1.6381 1.1228 2.8084 2.4878 2.979 1.4874 0.1864 2.4967-0.5163 3.0503-1.8617 0.199-0.4813 0.2045-1.0653 0.209-1.6031 0.0222-2.291-0.0078-4.5831 0.0189-6.8741 0.0211-1.8595 0.8982-2.8875 2.3677-2.8581 1.4185 0.0282 2.2077 0.9828 2.2233 2.8027 0.0255 2.4548 0.0478 4.9119-0.0067 7.3656-0.0923 4.1719-3.3749 7.2933-7.559 7.2549-4.113-0.0373-7.3522-3.2987-7.39-7.456-0.0045-1.1432 0.0044-2.2842 0.0044-3.4354z" fill="#b445ff"/>
 <path d="m99.223 11.894c0 2.6526-0.0078 4.9854 0 7.3182 0 1.0167 0.5981 1.4414 1.5427 1.4787 0.802 0.0305 1.619 0 2.399 0.1446 1.091 0.209 1.656 0.9716 1.589 2.1148-0.068 1.1432-0.735 1.8357-1.835 1.8945-1.222 0.0655-2.48 0.0926-3.6868-0.0915-3.0592-0.4654-4.5465-2.1577-4.5932-5.2971-0.07-4.6317-0.0411-9.2635-0.0155-13.887 0.01-1.6832 0.8403-2.6096 2.2132-2.6423 1.414-0.03502 2.3044 0.96814 2.3599 2.6886 0.0245 0.7592 0 1.5206 0 2.5644 1.2384 0 2.3894 0.0125 3.5404 0 1.306-0.018 2.276 0.4677 2.256 1.9205-0.019 1.3748-0.985 1.8075-2.207 1.7996-1.109-0.0113-2.227-0.0057-3.5627-0.0057z" fill="#b445ff"/>
 <path d="m20.382 22.202c0.0233-0.6857 0.3077-1.3355 0.7931-1.8124 0.4854-0.4768 1.1341-0.7436 1.8092-0.7441 1.4862 0.0124 2.589 1.2189 2.52 2.7564-0.01 0.3394-0.0867 0.6734-0.2254 0.9823s-0.3367 0.5865-0.5824 0.8166c-0.2457 0.2302-0.5341 0.4081-0.8484 0.5234-0.3142 0.1154-0.6479 0.1658-0.9816 0.1484-1.3851-0.0531-2.5234-1.2732-2.4845-2.6706z" fill="#b445ff"/>
</svg>
