<svg fill="none" version="1.1" viewBox="0 0 166 24.002" xmlns="http://www.w3.org/2000/svg">
 <path d="m166.01 3.6854c-2.537 6.0649-5.069 12.129-7.597 18.193-0.582 1.4163-1.589 2.0351-3.133 2.0966-1.942 0.0749-2.913-0.8802-3.525-2.3176-2.149-5.0598-4.336-10.104-6.51-15.152-0.095-0.2249-0.157-0.4267-0.497-0.4228-1.954 0.0173-3.908 0.0096-5.862 0.0115-0.088 0.0075-0.176 0.021-0.262 0.0404v14.413c0 1.0953-0.298 2.0754-1.222 2.7576-0.997 0.7379-2.094 0.8801-3.223 0.3267-1.188-0.5765-1.748-1.5873-1.748-2.8826-0.012-4.6671-0.012-9.3355 0-14.005v-0.6553h-0.621c-1.749 0-3.497 0.0153-5.23 0-1.491-0.0193-2.898-0.9359-3.107-2.823-0.177-1.4759 0.998-3.0939 2.762-3.2361 0.209-0.01729 0.423-0.01345 0.633-0.01345h19.912c1.727 0 2.605 0.58996 3.283 2.1677 1.62 3.7896 3.249 7.5772 4.887 11.363 0.033 0.0788 0.078 0.1519 0.151 0.2941 0.507-1.203 0.995-2.3522 1.477-3.5052 1.137-2.7122 2.27-5.4243 3.401-8.1364 0.62-1.4912 1.678-2.2292 3.182-2.1657 0.654 0.04104 1.277 0.2893 1.778 0.70805 0.501 0.41876 0.852 0.98577 1.001 1.6172 0 0.02883 0.047 0.04997 0.07 0.07495z" style="fill:#02e587"/>
 <path d="m6.1714 11.273c0 3.3053 0.01165 6.4569 0 9.6084 0.01898 0.5808-0.13712 1.1541-0.44843 1.6469-0.31131 0.4927-0.76376 0.8827-1.2998 1.1204-1.146 0.5611-2.2649 0.4112-3.2633-0.3632-0.81-0.6323-1.146-1.497-1.146-2.529 0.01554-3.1861 0-6.3723 0-9.5604 0-2.6289 0.036907-5.2577-0.013597-7.8789-0.017482-1.7449 1.0256-2.7961 2.0823-3.1228 1.4025-0.4343 2.9292-0.11914 3.9257 1.13 2.9525 3.7031 5.9459 7.3697 8.9236 11.052 0.0291 0.0411 0.067 0.0754 0.111 0.1003s0.093 0.0399 0.1435 0.0438v-9.0915c0-1.0954 0.2855-2.0754 1.2102-2.7576 0.9984-0.73793 2.0959-0.8859 3.2244-0.33821 1.1869 0.5765 1.7482 1.5777 1.7482 2.8672 0.0117 4.297 0.0117 8.6014 0.0117 12.902v4.5967c0 1.4662-0.7362 2.5712-2.0241 3.0631-1.3305 0.5074-2.8495 0.2076-3.7567-0.8724-1.6957-2.0197-3.3332-4.0894-4.994-6.1379-1.4491-1.7872-2.8942-3.5763-4.4346-5.4787z" style="fill:#02e587"/>
 <path d="m112.78 15.129c0.915 1.0915 1.798 2.1503 2.69 3.2054 1.568 1.8563 0.777 4.4698-1.54 5.0329-0.54 0.1512-1.112 0.1418-1.646-0.027-0.533-0.1689-1.005-0.4897-1.355-0.9224-1.199-1.3893-2.368-2.8018-3.551-4.2046-0.439-0.5227-0.855-1.0646-1.327-1.5547-0.187-0.1868-0.436-0.3012-0.701-0.3228-0.892-0.0384-1.785-0.0154-2.739-0.0154 0 0.7841 0.01 1.5085 0 2.2349-0.017 0.9724 0.017 1.9525-0.097 2.9153-0.173 1.4201-1.49 2.4847-2.9391 2.4982-1.5539 0-2.8223-1.0128-3.069-2.4713-0.0563-0.3251-0.0855-0.6542-0.0874-0.984v-17.236c0-1.6104 0.9207-2.8057 2.4358-3.1746 0.2009-0.04862 0.407-0.07314 0.6138-0.07303 3.1079 0 6.1969-0.04035 9.2929 0 3.78 0.05958 7.123 2.773 7.785 6.4838 0.629 3.5148-0.54 6.3935-3.56 8.4555-0.055 0.0461-0.115 0.0884-0.206 0.1595zm-10.142-3.7377c0.179 0 0.332 0.0269 0.486 0.0288h4.063c0.744-0.0213 1.449-0.3289 1.966-0.8573s0.806-1.2357 0.803-1.9712c-2e-3 -0.7355-0.295-1.4411-0.815-1.9663-0.521-0.5252-1.228-0.8285-1.971-0.8454h-4.064c-0.151 0-0.305 0.0193-0.468 0.0308z" style="fill:#02e587"/>
 <path d="m80.123 14.737v2.6404h9.3393c1.3248 0 2.4786 0.7303 2.8962 1.9601 0.6993 2.0601-0.6157 4.0702-2.7427 4.0894-4.2074 0.0384-8.4147 0.0211-12.626 0.0115-0.4013 0.0069-0.8001-0.0652-1.173-0.212-0.373-0.1469-0.7127-0.3656-0.9995-0.6434-0.2868-0.2779-0.515-0.6093-0.6712-0.9751s-0.2375-0.7587-0.239-1.1558c-0.0194-5.7996-0.0194-11.599 0-17.397 0-1.7507 1.387-3.0286 3.1585-3.0286h12.41c1.3345 0 2.5077 0.76867 2.9001 2.0158 0.6663 2.1273-0.7401 4.0183-2.834 4.0356-2.939 0.0269-5.8779 0-8.8188 0h-0.5983v3.0747c0.2934 0.0173 0.5692 0.0499 0.8431 0.0499h7.1288c0.5507-0.0237 1.0952 0.1239 1.5568 0.422 0.4617 0.2982 0.8173 0.7319 1.0169 1.2403 0.4817 1.0742 0.2623 2.0774-0.5128 2.9536-0.6255 0.7091-1.4665 0.9128-2.3776 0.9128h-7.6571z" style="fill:#02e587"/>
 <path d="m36.77 0.0226c1.6355-0.04227 2.6767 0.6553 3.3313 2.0735 2.6476 5.7535 5.3281 11.492 7.9912 17.238 0.9713 2.0851 0.0311 4.0606-1.9541 4.5544-0.6909 0.1575-1.4155 0.0749-2.0521-0.2337-0.6367-0.3086-1.1467-0.8246-1.4443-1.4612-0.4234-0.8763-0.8042-1.7756-1.2412-2.6442-0.0567-0.0944-0.1341-0.1748-0.2266-0.2354s-0.1977-0.0997-0.3076-0.1144c-2.6922-0.0231-5.3845-0.0096-8.0767-0.0231-0.1268-0.0107-0.2535 0.0215-0.3594 0.0913s-0.1846 0.1732-0.2233 0.2931c-0.4157 0.9186-0.8236 1.8448-1.2801 2.7422-0.3079 0.6128-0.819 1.1024-1.448 1.3872-0.629 0.2847-1.3377 0.3472-2.0076 0.1771-1.4219-0.3728-2.4378-1.62-2.362-2.9998 0.0372-0.467 0.1617-0.9231 0.3671-1.3451 1.8492-4.0356 3.7217-8.0539 5.5865-12.08 0.8275-1.7833 1.6841-3.5551 2.4727-5.3538 0.5594-1.2798 1.6705-2.1715 3.2342-2.0658zm-2.8049 14.199h5.6972l0.0175-0.2114-2.7913-6.3934c-0.1049 0.0634-0.1476 0.0749-0.1593 0.098-0.9259 2.0997-1.8512 4.2008-2.7758 6.3031z" style="fill:#02e587"/>
 <path d="m59.034 13.838c0.8916-2.1292 1.7482-4.172 2.6029-6.2186 0.777-1.8755 1.5637-3.7569 2.3523-5.6305 0.5575-1.326 1.6278-1.9928 3.1079-1.962 0.5926 0.02955 1.1624 0.23489 1.6353 0.5893 0.4729 0.3544 0.827 0.84145 1.0162 1.3977 0.2625 0.78313 0.2258 1.6343-0.103 2.3925-1.4853 3.5436-2.9687 7.0884-4.4501 10.635-0.9674 2.306-1.9386 4.6153-2.9137 6.9277-0.5419 1.2914-1.5889 1.9467-2.9855 2.0024-1.7968 0.073-2.9137-0.6957-3.6169-2.3425-2.4501-5.7805-4.9364-11.546-7.459-17.295-0.3318-0.74368-0.3549-1.5866-0.0642-2.347 0.2907-0.76034 0.8719-1.3772 1.6182-1.7174 0.3741-0.1678 0.7786-0.25891 1.1893-0.26783 0.4106-0.00893 0.8188 0.06451 1.2 0.21589s0.7274 0.37756 1.0178 0.66491c0.2904 0.28734 0.519 0.6299 0.672 1.007 1.6375 3.7128 3.2245 7.4408 4.8231 11.163 0.1088 0.2363 0.2156 0.4708 0.3574 0.7859z" style="fill:#02e587"/>
 <path d="m33.953 14.018 0.0117 0.1921z" style="fill:#02e587"/>
 <path d="m39.662 14.222c0-0.0711 0.0117-0.1403 0.0156-0.2114-0.0039 0.0692-0.0097 0.1384-0.0156 0.2114z" style="fill:#02e587"/>
</svg>
