<svg fill="none" version="1.1" viewBox="0 0 133 26" xmlns="http://www.w3.org/2000/svg">
 <path fill="#f8aeb8" d="m57.408 21.435c0.2192-0.2044 0.4539-0.3906 0.6551-0.6145 2.1591-2.3553 3.9402-4.9839 5.5163-7.761 0.7339-1.2941 1.5477-2.5414 2.8026-3.3772 0.8623-0.5879 1.8342-0.9925 2.8564-1.189s2.0733-0.1809 3.0893 0.0458c1.0602 0.2214 1.7283 1.0416 1.7412 1.9439 0.0045 0.4893-0.1838 0.9603-0.5234 1.3094-0.3396 0.3492-0.8027 0.5479-1.2874 0.5524-0.4847 0.0044-0.9513-0.1856-1.2972-0.5284s-0.5427-0.8103-0.5471-1.2996v-0.5429l-0.1935-0.0885c-0.1896 0.2981-0.4424 0.5728-0.5585 0.897-0.4901 1.3514-0.3766 2.7081 0.0761 4.0491 0.4334 1.2863 0.9699 2.5479 1.2769 3.8629 0.2456 1.032 0.3266 2.0969 0.2399 3.1546-0.1896 2.1066-1.6083 3.2171-3.5146 3.7718-1.4896 0.4322-2.987 0.5494-4.4896 0.0599-1.153-0.3763-2.052-1.0741-2.5975-2.1743-0.4489-0.9114-0.1458-1.8527 0.7171-2.4021 0.7377-0.47 1.745-0.2825 2.3344 0.4309 0.5894 0.7135 0.5391 1.6574-0.0993 2.3852-0.0864 0.099-0.1599 0.2083-0.2386 0.3138 0.0193 0.0456 0.0387 0.0911 0.0593 0.1302 0.1974-0.0315 0.3907-0.0848 0.5765-0.1589 1.4394-0.7642 2.1294-2.5869 1.6006-4.2417-0.503-1.5741-1.0215-3.1416-1.54-4.7105-0.0736-0.157-0.1599-0.3077-0.2579-0.4505-0.3766 0.5846-0.6681 1.1119-1.0318 1.5832-1.2446 1.6249-2.4002 3.3408-3.7996 4.8172-1.9252 2.0599-4.4182 3.4895-7.1568 4.1038-1.8327 0.414-3.7042 0.5729-5.5317-0.0299-1.7992-0.595-3.009-1.798-3.4269-3.7184-0.0413-0.1862-0.0967-0.3711-0.1547-0.5534-0.0142-0.0429-0.0658-0.0742-0.2799-0.3046-0.0682 0.182-0.1546 0.3565-0.258 0.5208-1.1801 1.548-2.5124 2.9346-4.2884 3.7874-1.3465 0.6509-2.7446 0.8749-4.1349 0.138-1.313-0.6901-1.9527-2.1561-1.3697-3.5348 0.6449-1.5285 1.5141-2.9646 2.2803-4.4436 0.7119-1.3723 1.438-2.7341 2.1035-4.1324 0.129-0.2604 0.1135-0.828-0.0438-0.9309-0.2386-0.1575-0.7636-0.1732-0.9828 0-0.7739 0.5937-1.5774 1.2082-2.1926 1.9646-1.9346 2.4061-3.4152 5.1089-4.7346 7.9003-0.5056 1.0702-1.0447 2.1235-1.5477 3.195-0.059 0.1549-0.1665 0.2861-0.3063 0.3735-0.1397 0.0875-0.3039 0.1264-0.4676 0.1108-1.5206-0.0104-3.0425 0-4.5631-0.0078-0.5159 0-0.5933-0.1172-0.3869-0.5924 0.1909-0.4296 0.4101-0.8463 0.5971-1.2772 0.0325-0.1243 0.0451-0.2531 0.0374-0.3815-0.1273 0.0042-0.2537 0.0234-0.3766 0.0573-1.2755 0.5208-2.5176 1.1561-3.8292 1.5624-2.2223 0.7041-4.5919 0.7882-6.8576 0.2434-0.9918-0.2382-1.6251-0.9478-1.9669-1.9165-0.2012-0.5715-0.30696-0.5962-0.70162-0.138-0.85639 0.9973-1.8508 1.7954-3.1496 2.0962-1.8688 0.4348-3.6113 0.0846-4.4213-1.5532-0.5159-1.0416-0.64487-2.1886-0.49913-3.3669 0.37661-2.9737 1.5193-5.67 2.9032-8.2804 0.33404-0.6302 0.70162-1.2408 1.0498-1.8631 0.08899-0.1602 0.1638-0.3281 0.30696-0.6171-0.19687 0.0101-0.39264 0.0358-0.58555 0.0768-0.8551 0.2773-1.6999 0.5911-2.564 0.8332-0.21539 0.0599-0.5159-0.0442-0.72871-0.1692s-0.3521-0.3763-0.5288-0.569c-0.34565-0.4127-0.29406-0.5429 0.2141-0.7121 1.1608-0.3906 2.3215-0.7903 3.4668-1.2278 1.8456-0.7043 3.3598-1.8475 4.4174-3.5504 0.12592-0.20861 0.29919-0.384 0.50551-0.51168 0.20631-0.12768 0.43976-0.20398 0.68105-0.22262 0.7016-0.09244 1.3994-0.21873 2.0997-0.31898 0.1963-0.01175 0.3931-0.01175 0.5894 0-0.4785 0.76295-0.8822 1.4022-1.282 2.0441-1.8093 2.8888-3.4044 5.9089-4.772 9.0355-0.63068 1.453-1.015 2.9646-0.88089 4.5738 0.09802 1.1717 0.92861 1.7081 2.0314 1.367 1.2756-0.3906 2.07-1.3436 2.6711-2.4255 1.1801-2.1261 2.2622-4.3069 3.3791-6.4694 0.3418-0.664 0.6346-1.3566 1.0112-2.0011 0.1289-0.2096 0.4359-0.4336 0.6629-0.4349 1.687 0 3.3443-0.1796 4.9681-0.6509 0.129-0.0378 0.2902 0.0273 0.4372 0.0455 0.0021 0.1481-0.0183 0.2957-0.0606 0.4375-1.135 2.3435-2.3022 4.687-3.4139 7.0436-0.4159 0.8564-0.751 1.7504-1.0009 2.6703-0.2824 1.1027 0.4127 1.9216 1.5348 1.9724 1.7747 0.0794 3.2141-0.7004 4.4948-1.8331 1.9346-1.7056 3.1392-3.9189 4.1775-6.2338 1.4522-3.2497 2.3718-6.6556 3.1289-10.121 0.0916-0.42574 0.1367-0.86319 0.2515-1.2824 0.049-0.17967 0.1909-0.41793 0.3444-0.47 1.2549-0.43225 2.5446-0.72389 3.8563-0.31247 1.2768 0.3997 1.7811 1.1314 1.8727 2.5167 0.0993 1.5064-0.2244 2.9502-0.6565 4.372-0.3121 1.0285-0.6732 2.0414-1.0589 3.2015 0.574-0.1211 1.0499-0.2162 1.5245-0.3242 1.4226-0.3294 2.8607-0.4791 4.3129-0.2409 2.1513 0.3529 3.2051 2.2732 2.2584 4.3225-0.8603 1.8605-1.883 3.6455-2.8375 5.4682-0.4436 0.8476-0.8899 1.6925-1.3245 2.544-0.0845 0.1722-0.1432 0.356-0.1741 0.5455-0.0839 0.4714 0.2115 0.7669 0.6242 0.5495 0.5907-0.3099 1.2111-0.651 1.6573-1.1301 0.9644-1.044 1.8728-2.1392 2.7214-3.2809 0.285-0.3802 0.3482-0.9322 0.5004-1.4101 0.9144-2.8643 2.7626-4.9474 5.3525-6.3795 1.5941-0.9025 3.3987-1.3575 5.226-1.3176 2.0365 0.0521 3.8615 0.651 5.0145 2.5258 0.9377 1.5194 0.9738 3.1715 0.5469 4.8472-0.3611 1.4152-1.0241 2.6976-1.8302 3.9058-0.0799 0.1198-0.1405 0.2604-0.2089 0.3828l0.1574 0.1393zm-2.2455-9.5173c-0.1844-0.3906-0.2579-0.8267-0.5159-1.0481-0.3766-0.3228-0.8203-0.039-1.2059 0.155-0.1571 0.0742-0.2996 0.1765-0.4205 0.302-0.5159 0.582-1.0782 1.1366-1.5232 1.772-1.4624 2.1187-2.6432 4.422-3.5119 6.8509-0.387 1.0676-0.5972 2.2133-0.7829 3.3382-0.0529 0.3203 0.1728 0.8046 0.4282 1.0324 0.3637 0.3216 0.8551 0.1198 1.1904-0.1627 0.5249-0.4214 1.0051-0.8966 1.4329-1.4178 1.758-2.2563 2.9471-4.829 3.935-7.4967 0.396-1.0624 0.6462-2.186 0.9738-3.3252z" />
 <path fill="#f8aeb8" d="m107.16 10.676c-0.056 0.2105-0.126 0.417-0.209 0.6185-1.497 2.9853-3.013 5.9616-4.493 8.9548-0.295 0.6282-0.534 1.2818-0.713 1.9529-0.068 0.2331-0.029 0.651 0.119 0.7565 0.189 0.1302 0.621 0.1406 0.803 0 0.774-0.5768 1.547-1.1718 2.21-1.8618 1.358-1.4322 2.153-3.2263 2.967-4.9995 0.837-1.8176 1.7-3.6229 2.587-5.4162 0.072-0.1073 0.168-0.1963 0.279-0.2596 0.112-0.0633 0.238-0.0992 0.366-0.1049 1.805 0.0989 3.538-0.2929 5.288-0.6119 1.689-0.3073 3.392-0.5208 5.101-0.2461 2.535 0.4166 3.599 2.4269 2.459 4.7534-1.061 2.1704-2.249 4.2783-3.367 6.4213-0.295 0.571-0.559 1.1583-0.79 1.7589-0.068 0.1771-0.056 0.4948 0.056 0.6041 0.112 0.1094 0.476 0.1693 0.605 0.0768 0.774-0.5637 1.604-1.0988 2.258-1.7928 0.817-0.8671 1.498-1.8657 2.203-2.833 0.285-0.3906 0.531-0.2682 0.828-0.0742 0.24 0.1575 0.352 0.3372 0.142 0.5989-1.139 1.4217-2.193 2.919-3.44 4.2417-1.199 1.2773-2.658 2.2264-4.501 2.3514-2.385 0.1601-4.385-1.5246-3.395-4.3212 0.492-1.3775 1.37-2.6117 2.05-3.9228 0.784-1.509 1.558-3.0244 2.293-4.5568 0.101-0.2096 0.057-0.6601-0.094-0.7812-0.186-0.151-0.635-0.1992-0.826-0.0729-0.696 0.4661-1.425 0.9387-1.973 1.5623-1.861 2.1144-3.205 4.579-4.457 7.0905-0.737 1.479-1.419 2.9827-2.118 4.4826-0.19 0.4088-0.439 0.6054-0.915 0.5963-1.485-0.0287-2.972-0.0078-4.46-0.013-0.558 0-0.62-0.0964-0.402-0.6133 0.129-0.3033 0.295-0.591 0.432-0.8918 0.074-0.1614 0.121-0.3359 0.181-0.5051l-0.11-0.0938c-0.161 0.1029-0.331 0.1927-0.481 0.3099-1.108 0.871-2.302 1.5845-3.7235 1.7055-0.7346 0.0618-1.4744 0.0078-2.1925-0.1601-0.9364-0.22-1.3285-1.0416-1.6354-1.8839-0.0568-0.1563-0.111-0.3151-0.2051-0.5846-0.2206 0.22-0.3869 0.3567-0.5159 0.5208-0.9351 1.1379-2.0443 1.9529-3.5559 2.13-2.1925 0.2604-3.9982-1.2877-4.1387-3.5257-0.1445-2.3435 0.6629-4.3902 1.8894-6.295 1.2898-2.0076 2.8568-3.7756 4.9475-4.9786 2.2351-1.2851 4.5722-1.5949 6.9351-0.4049 1.751 0.8827 3.507 0.927 5.328 0.3567 0.127-0.0225 0.255-0.0356 0.384-0.0391zm-14.642 11.623c0.0412 0.3906-0.049 0.8801 0.4514 1.0962s0.8938-0.069 1.2059-0.3906c0.5672-0.557 1.0911-1.1572 1.567-1.7954 1.8057-2.5297 3.0722-5.3588 4.457-8.1215 0.235-0.4687 0.141-0.7057-0.3543-0.8815-0.8087-0.2851-1.4793-0.0182-2.0778 0.5534-1.7269 1.6508-2.9767 3.6454-4.0704 5.7533-0.6113 1.1731-1.1621 2.3774-1.1788 3.7861z" />
 <path fill="#f8aeb8" d="m92.955 3.0336c-0.5309 0.15158-0.9996 0.471-1.3374 0.91136-0.8706 1.0845-1.4072 2.3513-1.9347 3.6272-0.1393 0.3437 0.0117 0.4518 0.3186 0.457 0.3869 0.0078 0.761 0 1.1401 0.0104 0.2993 0.0078 0.4205 0.1302 0.258 0.4362-0.4411 0.8488-0.8628 1.7081-1.3336 2.5401-0.098 0.1705-0.365 0.2604-0.5688 0.3476-0.1019 0.0456-0.2386 0.0078-0.3598 0.0104-1.6316 0.0287-1.2266-0.2448-1.9772 1.2824-1.3891 2.8253-2.7356 5.6713-4.0975 8.5096-0.6449 1.3332-1.2898 2.6638-1.9114 4.0035-0.0552 0.1466-0.1558 0.2714-0.2869 0.3556s-0.2856 0.1234-0.4406 0.1118h-4.5644c-0.57 0-0.6448-0.1302-0.3869-0.6666 0.7739-1.5975 1.5606-3.1885 2.3409-4.7834 1.3482-2.7384 2.6904-5.4747 4.0266-8.2088 0.2141-0.4374 0.138-0.5715-0.3341-0.5963-0.3108-0.0156-0.6216 0-0.9324-0.0078-0.3109-0.0078-0.4669-0.1302-0.2954-0.4557 0.445-0.8462 0.8732-1.7029 1.3568-2.5258 0.1045-0.1796 0.4372-0.3671 0.6243-0.332 1.3078 0.2604 1.8495-0.4283 2.3215-1.5623 0.8938-2.1365 2.3435-3.8603 4.5554-4.687 2.0868-0.78117 4.1955-0.82544 6.1663 0.44527 1.0808 0.69654 1.4084 1.9529 0.7906 2.8877-0.2332 0.36913-0.5897 0.64181-1.0048 0.7687-0.4151 0.12693-0.8614 0.09963-1.2583-0.07688-0.397-0.1765-0.7182-0.49058-0.9056-0.88541s-0.2287-0.84433-0.1163-1.2672c0.0451-0.17837 0.0812-0.35673 0.147-0.64967z"/>
 <path fill="#f8aeb8" d="m126.83 14.988h1.426c0.724 0 0.818-0.0755 1.032-0.7603 0.107-0.3489 0.213-0.6991 0.336-1.0416 0.088-0.1847 0.189-0.363 0.301-0.5338 0.184 0.5885 0.324 1.0234 0.453 1.4621 0.248 0.8411 0.285 0.8736 1.144 0.875h1.419c0.02 0.0572 0.042 0.1158 0.063 0.1744-0.347 0.2604-0.69 0.5286-1.041 0.7812-0.806 0.5859-0.808 0.6015-0.472 1.5415 0.129 0.375 0.248 0.7577 0.365 1.1379 8e-3 0.0221-0.028 0.0586-0.099 0.1888-0.303-0.2096-0.605-0.4075-0.897-0.6197-1.16-0.845-0.853-0.7981-2.009 0-0.29 0.2005-0.576 0.4075-0.864 0.6106l-0.138-0.0938c0.173-0.5494 0.313-1.1118 0.527-1.6443 0.163-0.4062 0.052-0.6575-0.272-0.888-0.455-0.3242-0.903-0.6614-1.35-0.9934 0.028-0.0598 0.05-0.1275 0.076-0.1966z" />
</svg>
